<svg width="165" height="52" viewBox="0 -2 46 52" fill="none" xmlns="http://www.w3.org/2000/svg">
<path d="M4.51372 10.1554C1.72423 11.7326 -0.00756836 14.7046 -0.00756836 17.9094V34.3149C-0.00756836 37.5196 1.72609 40.4916 4.51558 42.0707L15.2713 48.1581L21.1073 51.4615V37.5531L19.1222 36.4303L12.0964 32.4527V19.7697L19.1222 15.7921L21.1073 14.6692V0.762756L15.2713 4.0662L4.51372 10.1554ZM17.1968 12.3918L8.55085 17.2856C8.32553 17.4122 8.18587 17.6524 8.18587 17.9112V34.3167C8.18587 34.5756 8.32553 34.8139 8.55085 34.9405L17.1968 39.8343V44.7559L6.44104 38.6686C4.87497 37.7822 3.90293 36.1156 3.90293 34.3167V17.9112C3.90293 16.1124 4.87497 14.4458 6.44104 13.5594L17.1968 7.4702V12.3918ZM46.1699 17.9094V34.3149C46.1699 37.5196 44.4362 40.4916 41.6467 42.0707L30.891 48.1581L25.055 51.4615V37.5531L27.0401 36.4303L34.0659 32.4527V30.1493H37.9764V34.3149C37.9764 34.5737 37.8368 34.8121 37.6115 34.9387L28.9655 39.8324V44.7541L39.7213 38.6667C41.2873 37.7803 42.2594 36.1137 42.2594 34.3149V17.9094C42.2594 16.1105 41.2873 14.4439 39.7213 13.5575L28.9655 7.46834V12.39L37.6115 17.2837C37.8368 17.4103 37.9764 17.6505 37.9764 17.9094V22.075H34.0659V19.7715L27.0401 15.794L25.055 14.6711V0.762756L30.891 4.0662L41.6467 10.1554C44.4362 11.7345 46.168 14.7065 46.168 17.9112L46.1699 17.9094Z" fill="#21D192"/>
<path d="M147.965 28.1018C147.965 26.5156 148.26 25.1231 148.85 23.9242C149.459 22.7254 150.28 21.8032 151.312 21.1577C152.345 20.5121 153.498 20.1894 154.771 20.1894C155.859 20.1894 156.809 20.4107 157.62 20.8533C158.45 21.296 159.086 21.877 159.529 22.5963V20.4107H164.26V35.8482H159.529V33.6626C159.068 34.3819 158.422 34.9629 157.593 35.4055C156.781 35.8482 155.831 36.0695 154.743 36.0695C153.489 36.0695 152.345 35.7467 151.312 35.1012C150.28 34.4372 149.459 33.5058 148.85 32.3069C148.26 31.0897 147.965 29.6879 147.965 28.1018ZM159.529 28.1294C159.529 26.949 159.197 26.0176 158.533 25.3352C157.888 24.6528 157.095 24.3116 156.154 24.3116C155.213 24.3116 154.411 24.6528 153.747 25.3352C153.101 25.9992 152.779 26.9214 152.779 28.1018C152.779 29.2822 153.101 30.2228 153.747 30.9237C154.411 31.6061 155.213 31.9473 156.154 31.9473C157.095 31.9473 157.888 31.6061 158.533 30.9237C159.197 30.2412 159.529 29.3098 159.529 28.1294Z" fill="white"/>
<path d="M139.67 20.2447C141.477 20.2447 142.916 20.8349 143.986 22.0153C145.074 23.1773 145.618 24.7819 145.618 26.8291V35.8482H140.915V27.4654C140.915 26.4326 140.647 25.6303 140.112 25.0585C139.578 24.4868 138.858 24.2009 137.954 24.2009C137.051 24.2009 136.331 24.4868 135.797 25.0585C135.262 25.6303 134.994 26.4326 134.994 27.4654V35.8482H130.263V20.4107H134.994V22.4579C135.474 21.7755 136.119 21.2407 136.931 20.8533C137.742 20.4476 138.655 20.2447 139.67 20.2447Z" fill="white"/>
<path d="M110.546 28.1018C110.546 26.5156 110.841 25.1231 111.431 23.9242C112.04 22.7254 112.861 21.8032 113.893 21.1577C114.926 20.5121 116.079 20.1894 117.352 20.1894C118.44 20.1894 119.39 20.4107 120.201 20.8533C121.031 21.296 121.668 21.877 122.11 22.5963V20.4107H126.841V35.8482H122.11V33.6626C121.649 34.3819 121.004 34.9629 120.174 35.4055C119.362 35.8482 118.412 36.0695 117.324 36.0695C116.07 36.0695 114.926 35.7467 113.893 35.1012C112.861 34.4372 112.04 33.5058 111.431 32.3069C110.841 31.0897 110.546 29.6879 110.546 28.1018ZM122.11 28.1294C122.11 26.949 121.778 26.0176 121.114 25.3352C120.469 24.6528 119.676 24.3116 118.735 24.3116C117.794 24.3116 116.992 24.6528 116.328 25.3352C115.682 25.9992 115.36 26.9214 115.36 28.1018C115.36 29.2822 115.682 30.2228 116.328 30.9237C116.992 31.6061 117.794 31.9473 118.735 31.9473C119.676 31.9473 120.469 31.6061 121.114 30.9237C121.778 30.2412 122.11 29.3098 122.11 28.1294Z" fill="white"/>
<path d="M108.058 15.3755V35.8482H103.327V15.3755H108.058Z" fill="white"/>
<path d="M99.8988 15.3755V35.8482H95.168V15.3755H99.8988Z" fill="white"/>
<path d="M92.6722 27.8804C92.6722 28.3231 92.6446 28.7842 92.5893 29.2637H81.8826C81.9564 30.2228 82.2607 30.9605 82.7956 31.477C83.3489 31.975 84.0221 32.224 84.8152 32.224C85.9956 32.224 86.8163 31.726 87.2774 30.73H92.3126C92.0544 31.7444 91.5841 32.6574 90.9016 33.4689C90.2377 34.2804 89.3985 34.9167 88.3841 35.3778C87.3697 35.8389 86.2354 36.0695 84.9812 36.0695C83.4688 36.0695 82.1224 35.7467 80.942 35.1012C79.7616 34.4557 78.8394 33.5335 78.1754 32.3346C77.5114 31.1358 77.1794 29.734 77.1794 28.1294C77.1794 26.5248 77.5022 25.1231 78.1477 23.9242C78.8117 22.7254 79.7339 21.8032 80.9143 21.1577C82.0947 20.5121 83.4503 20.1894 84.9812 20.1894C86.4751 20.1894 87.8031 20.5029 88.965 21.13C90.127 21.7571 91.0307 22.6516 91.6763 23.8136C92.3403 24.9755 92.6722 26.3312 92.6722 27.8804ZM87.8307 26.6355C87.8307 25.8239 87.5541 25.1784 87.0008 24.6989C86.4475 24.2193 85.7558 23.9796 84.9258 23.9796C84.1328 23.9796 83.4596 24.2101 82.9062 24.6712C82.3714 25.1323 82.0394 25.7871 81.9103 26.6355H87.8307Z" fill="white"/>
<path d="M56.2441 26.1098C56.2441 24.1916 56.6591 22.4856 57.4891 20.9916C58.3191 19.4793 59.4718 18.3081 60.9473 17.4781C62.4413 16.6297 64.1289 16.2055 66.0101 16.2055C68.3156 16.2055 70.2891 16.8141 71.9306 18.0314C73.5721 19.2487 74.6695 20.9086 75.2228 23.0112H70.0217C69.6343 22.1997 69.081 21.5818 68.3617 21.1576C67.6609 20.7334 66.8586 20.5213 65.9548 20.5213C64.4977 20.5213 63.3173 21.0285 62.4136 22.0429C61.5098 23.0574 61.058 24.413 61.058 26.1098C61.058 27.8066 61.5098 29.1623 62.4136 30.1767C63.3173 31.1911 64.4977 31.6983 65.9548 31.6983C66.8586 31.6983 67.6609 31.4862 68.3617 31.062C69.081 30.6378 69.6343 30.0199 70.0217 29.2084H75.2228C74.6695 31.311 73.5721 32.9709 71.9306 34.1882C70.2891 35.387 68.3156 35.9865 66.0101 35.9865C64.1289 35.9865 62.4413 35.5715 60.9473 34.7415C59.4718 33.8931 58.3191 32.7219 57.4891 31.228C56.6591 29.734 56.2441 28.028 56.2441 26.1098Z" fill="white"/>
</svg>
