<?xml version="1.0" encoding="utf-8"?>
<!-- Generator: Adobe Illustrator 26.0.3, SVG Export Plug-In . SVG Version: 6.00 Build 0)  -->
<svg version="1.0" id="katman_1" xmlns="http://www.w3.org/2000/svg" xmlns:xlink="http://www.w3.org/1999/xlink" x="0px" y="0px"
	 viewBox="0 4 38.5 20" style="enable-background:new 0 0 38.5 28.3;" xml:space="preserve">
<style type="text/css">
	.st0{fill:url(#SVGID_1_);}
</style>
<linearGradient id="SVGID_1_" gradientUnits="userSpaceOnUse" x1="9.0686" y1="15.116" x2="30.0686" y2="15.1445" gradientTransform="matrix(1 0 0 -1 0 29.2593)">
	<stop  offset="8.580000e-02" style="stop-color:#8D29C1"/>
	<stop  offset="0.2383" style="stop-color:#942BBB"/>
	<stop  offset="0.4667" style="stop-color:#A92FAC"/>
	<stop  offset="0.7413" style="stop-color:#CA3793"/>
	<stop  offset="1" style="stop-color:#F03F77"/>
	<stop  offset="1" style="stop-color:#F03F77"/>
</linearGradient>
<path class="st0" d="M19.2,3.6c-5.8,0-10.5,4.7-10.5,10.5c0,4.2,2.4,7.8,6,9.5v0h0c1.4,0.7,2.9,1,4.5,1c5.8,0,10.5-4.7,10.5-10.5
	C29.7,8.3,25,3.6,19.2,3.6z M19.2,4.5c5.3,0,9.6,4.3,9.6,9.6c0,1.5-0.4,3-1,4.3c-1.4-0.7-2.8-1.2-4.2-1.5v-8c0-0.3-0.2-0.5-0.5-0.5
	h-1.8H17h-1.8c-0.3,0-0.5,0.2-0.5,0.5v8.1c-1.4,0.3-2.7,0.8-4.1,1.5c-0.6-1.3-1-2.7-1-4.3C9.6,8.8,13.9,4.5,19.2,4.5z M11.2,19.3
	c1.1-0.6,2.3-1,3.5-1.3v4.6C13.3,21.8,12,20.7,11.2,19.3z M17,23.5V12.7c0-1.2,1-2.3,2.2-2.3c1.2,0,2.2,1,2.2,2.2c0,0,0,0,0,0h0v3.7
	c-1-0.1-2.1-0.2-3.1-0.1l-0.9,1.2c1.3-0.1,2.6-0.1,3.9,0c0,0,0,0,0,0c0,0,0,0,0,0c0.2,0,1,0.1,1.8,0.3l-1.8,0.6v4.9
	c-0.7,0.2-1.4,0.2-2.2,0.2C18.5,23.7,17.7,23.7,17,23.5z M23.7,22.7v-4.6c1.2,0.3,2.4,0.8,3.6,1.3C26.4,20.8,25.1,21.9,23.7,22.7z"
	/>
</svg>
